<?xml version="1.0" encoding="utf-8"?>
<!-- Generator: Adobe Illustrator 22.1.0, SVG Export Plug-In . SVG Version: 6.00 Build 0)  -->
<svg version="1.1" id="Calque_1" xmlns="http://www.w3.org/2000/svg" xmlns:xlink="http://www.w3.org/1999/xlink" x="0px" y="0px"
	 viewBox="0 0 826.4 123.3" style="enable-background:new 0 0 826.4 123.3;" xml:space="preserve">
<style type="text/css">
	.st0{fill:#FFFFFF;}
</style>
<g>
	<path class="st0" d="M180.3,122c-2.1,1-5,1.2-7.6,1.2c-3.1,0-6.2-0.2-9.6-0.4v-3.5c3.3,0.3,6.7,0.5,9.4,0.5c2.2,0,4-0.2,5.4-0.5
		c2.1-0.6,2.6-1.9,2.6-3.5c0-1.8-0.6-2.8-2.7-3.5c-1.9-0.6-3.7-0.8-6.1-1.2c-5.8-1-8.7-2.5-8.7-7.2c0-2.5,0.9-4.9,3.8-6.3
		c2.1-1,4.9-1.2,7.2-1.2c2.7,0,5.5,0.1,8.5,0.4v3.3c-3-0.3-6.1-0.5-8.6-0.5c-1.7,0-3.4,0.1-4.7,0.5c-2,0.6-2.5,1.8-2.5,3.3
		c0,1.7,0.6,2.7,2.5,3.3c1.8,0.5,3.7,0.8,5.9,1.2c5.9,0.9,9,2.6,9,7.5C184.2,118.1,183.3,120.6,180.3,122z"/>
	<path class="st0" d="M223.7,120.6c-3,2.1-6.9,2.6-11.5,2.6c-4.9,0-8.7-0.6-11.6-2.7c-3.3-2.3-4.6-6.1-4.6-10.7
		c0-4.6,1.3-8.4,4.6-10.7c2.9-2.1,6.9-2.6,11.5-2.6c4.9,0,8.7,0.6,11.7,2.7c3.3,2.3,4.6,6.1,4.6,10.7
		C228.3,114.6,227,118.3,223.7,120.6z M212.2,99.9c-8.6,0-12.2,2.5-12.2,9.9c0,7.1,3.5,10.2,12.1,10.2c8.6,0,12.2-2.5,12.2-9.9
		C224.2,103,220.7,99.9,212.2,99.9z"/>
	<path class="st0" d="M245.6,112.6v10.2h-3.9V97.1h19.9v3.4h-16v8.8H260v3.3H245.6z"/>
	<path class="st0" d="M283.5,122.7v-22.4h-11.3v-3.3h26.6v3.3h-11.3v22.4H283.5z"/>
	<path class="st0" d="M338.5,122.7l-8.1-20.6h-0.2l-7.9,20.6h-4.2l-10.3-25.6h4.3l8.2,21.1h0.2l8-21.1h4.2l8,21.1h0.2l8.1-21.1h4.1
		l-10.3,25.6H338.5z"/>
	<path class="st0" d="M384.4,122.7l-3.6-6.9h-15.2l-3.5,6.9h-4.2l13.3-25.6h4.3l13.3,25.6H384.4z M373.3,100.9h-0.2l-6,11.8h12.2
		L373.3,100.9z"/>
	<path class="st0" d="M420.4,122.7l-7.6-9.8c-0.8,0.1-1.6,0.1-2.4,0.1h-5.7v9.7h-3.9V97.1h10.2c5,0,8.4,0.2,10.8,2
		c1.8,1.3,2.5,3.3,2.5,5.8c0,2.5-0.7,4.3-2.4,5.7c-1.1,1-2.7,1.5-4.6,1.9l8,10.2H420.4z M411.2,100.2h-6.6v9.7h6.6
		c5.9,0,9-0.6,9-4.9C420.2,100.6,416.6,100.2,411.2,100.2z"/>
	<path class="st0" d="M439,122.7V97.1h19.2v3.3h-15.4v7.6h14.2v3.1h-14.2v8.3h16v3.3H439z"/>
</g>
<polygon class="st0" points="688.6,71.1 665.4,39 687.3,18.6 673.4,18.6 648.3,42.5 648.3,5.3 638.3,5.3 638.3,71.1 648.3,71.1 
	648.3,55.3 658.4,45.5 676.5,71.1 "/>
<path class="st0" d="M817.5,18.7l-0.5,6.5c0,0-6.1-7.2-18.7-7.2c-11.1,0-27.1,6.7-27.1,26.5c0,19.6,14.4,26.9,27,26.9
	c12.5,0,18.8-7,18.8-7v3.4c0,11.9-6.3,19-17,19c-14,0-19.2-8.6-19.2-8.6l-8.5,4.2c0,0,7.3,13.6,26,13.6c16.1,0,28.2-8,28.2-28.3
	V18.7H817.5z M798.7,62.5c-5.6,0-17.4-3.6-17.4-17.9c0-14.5,11.8-17.8,17.3-17.8c11.7,0,18.1,8.9,18.1,10.7s0,6.2,0,8.4
	C816.8,56.2,808.3,62.5,798.7,62.5z"/>
<g>
	<path class="st0" d="M107,108c-0.8,0.5-1.7,1.1-2.6,1.6l-0.3,0.2l0.3,0c16.7,4.6,33.2,4.4,36.4-6c4.1-13.4-22.4-27.8-34.9-34.7
		c-2.7-1.5-3.8-0.6-2.1,1.4C111.6,79.6,122.9,97.5,107,108z"/>
	<path class="st0" d="M104.2,109.7c0,0-21,13.2-58,13.2c-14.4,0-26.4-2.2-31.5-7.2c-5.4-5.3-8.3-14.2-8.3-22.4c0-7,2.9-12.9,9-12.9
		C30.9,80.3,79.6,105.1,104.2,109.7z"/>
	<g>
		<path class="st0" d="M34.2,33.2c0.8-0.5,1.7-1.1,2.6-1.6l0.3-0.2l-0.3,0c-16.7-4.6-33.2-4.4-36.3,6c-4.1,13.4,22.4,27.8,34.9,34.7
			c2.7,1.5,3.9,0.6,2.1-1.4C29.6,61.6,18.3,43.7,34.2,33.2z"/>
		<path class="st0" d="M37,31.5c0,0,21-13.2,58-13.2c14.4,0,26.4,2.2,31.5,7.2c5.4,5.3,8.3,14.2,8.3,22.4c0,7-2.9,12.9-9,12.9
			C110.3,60.9,61.6,36.1,37,31.5z"/>
	</g>
</g>
<path class="st0" d="M309.3,26.9c-9.7,0-18.2,5.5-18.2,17.4c0,12,7.5,17.9,18.1,17.9c5.5,0,17.2-2.2,17.2-17.7
	C326.4,29.1,314.7,26.9,309.3,26.9z M309.8,71.1c-12.5,0-18.7-7.9-18.7-7.9v22h-9.6V18.9h9.1l0.5,6.5c0,0,6.1-7.2,18.6-7.2
	c11,0,26.9,5.6,26.9,26.3C336.5,65.1,322.3,71.1,309.8,71.1z"/>
<path class="st0" d="M384.2,44.6c0,14.2,11.7,17.7,17.2,17.7c10.6,0,18-6,18-17.9c0-12-8.5-17.4-18.2-17.4
	C395.8,26.9,384.2,30.1,384.2,44.6z M374,44.4c0-19.6,15.8-26.3,26.9-26.3c12.5,0,18.6,7.2,18.6,7.2l0.5-6.5h9.1v52.2H420l-0.5-6.9
	c0,0-6.2,6.9-18.7,6.9C388.3,71.1,374,63.9,374,44.4z"/>
<path class="st0" d="M374.8,27.9V19c-9.8-0.9-16.8,1.5-22.1,7.1l-0.5-7.2h-9.5v52.2h10v-27C352.6,36.5,358.7,27,374.8,27.9z"/>
<path class="st0" d="M193.8,39.9c-10-1.8-19.9-3-19.9-7.7c0-3,3-5.7,11.8-5.7c6.5,0,14.1,1.5,16.1,6.1l9.3-3.9
	c-3.5-7.1-14-10.5-26-10.5c-10.5,0-21.8,4-21.8,14.6c0,9.2,8.4,12.1,22.2,14.7c9.2,1.7,17.8,2.6,17.8,7.6c0,3.1-4.2,7.2-14.7,7.2
	c-7.5,0-15-1.6-17.3-6.9l-9,3.8c3.7,8.2,13.4,12.4,24.7,12.4c22.6,0,26.9-10.7,26.9-16.8C214,44.7,203.9,41.8,193.8,39.9z"/>
<path class="st0" d="M247.1,18.2c-13.3,0-29.1,6.7-29.1,26.3c0,19.4,14.2,27,29.1,27c14.9,0,29.1-7.5,29.1-27
	C276.2,24.8,260.4,18.2,247.1,18.2z M247.1,62.3c-8.2,0-19-3.5-19-17.7c0-14.4,12-17.4,19-17.4c7,0,19,2.9,19,17.4
	C266,58.8,255.3,62.3,247.1,62.3z"/>
<path class="st0" d="M528.3,44.6c0,14.2,11.7,17.7,17.2,17.7c10.6,0,18-6,18-17.9c0-12-8.5-17.4-18.2-17.4
	C539.9,26.9,528.3,30.1,528.3,44.6z M518.2,44.4c0-19.6,15.8-26.3,26.9-26.3c12.5,0,18.6,7.2,18.6,7.2l0.5-6.5h9.1v52.2h-9.1
	l-0.5-6.9c0,0-6.2,6.9-18.7,6.9C532.4,71.1,518.2,63.9,518.2,44.4z"/>
<path class="st0" d="M630.2,71.1h-9.9V41.5c0-8.7-3.8-14.7-14.2-14.7c-12.4,0-16.1,10-16.1,12.6c0,3.3,0,31.7,0,31.7h-10.1V18.7h8.7
	l1.4,7.4h0.2c0,0,4.9-8.1,17.9-8.1c12.4,0,22.1,6.9,22.1,20.2V71.1z"/>
<rect x="695.3" y="18.8" class="st0" width="10" height="52.3"/>
<path class="st0" d="M706.9,6.5c0-3.6-2.9-6.5-6.5-6.5c-3.6,0-6.5,2.9-6.5,6.5c0,3.6,2.9,6.5,6.5,6.5C704,13.1,706.9,10.2,706.9,6.5
	z"/>
<path class="st0" d="M486.9,26.9c-12.5,0-18.2,9-18.2,10.5s0,4,0,6.9c0,2.1,0,1.9,0,3.6c0,8.2,9.3,14.3,18,14.3
	c5.5,0,17.2-3.5,17.2-17.7C504,30.1,492.3,26.9,486.9,26.9z M487.4,71.1c-12.4,0-18.7-6.9-18.7-6.9l-0.5,6.9h-9.1V5.3h9.6v20.1
	c0,0,6.1-7.2,18.6-7.2c11,0,26.9,6.7,26.9,26.3C514.1,63.9,499.9,71.1,487.4,71.1z"/>
<path class="st0" d="M765.3,71.1h-9.9V41.5c0-8.7-3.8-14.7-14.2-14.7c-12.4,0-16.1,10-16.1,12.6c0,3.3,0,31.7,0,31.7H715V18.7h8.7
	l1.4,7.4h0.2c0,0,4.9-8.1,17.9-8.1c12.4,0,22.1,6.9,22.1,20.2V71.1z"/>
</svg>
